<svg version="1" xmlns="http://www.w3.org/2000/svg" width="2848" height="2848" viewBox="0 0 2136.000000 2136.000000"><path d="M.7 7.4c-.3.7-.1 3.3.5 5.7 1.3 5.7 1.4 6.5 2.2 12.2.4 2.7.9 5.6 1.1 6.5.1 1 .6 4.6.9 8.2.4 3.6.9 7.6 1.1 9 .2 1.4.7 5.9 1.1 10 .3 4.1.7 8.2.9 9 .2.8.6 6.2 1 12s.8 10.7 1 11c.2.3.6 5.2 1 11 .3 5.8.8 12.1 1 14 .2 1.9.6 7.5 1 12.5.3 4.9.8 11.2 1 14 .5 5 1.2 16 2 29 .5 7.4 1.3 18.9 2 29 .2 3.3.7 11.2 1 17.5.4 6.3.8 13.7 1 16.5.2 2.7.6 9.7.9 15.5.3 5.8.8 13.6 1.1 17.5.6 9.2 1.5 23.8 2 35 .3 4.9.7 13 1 18 1.3 22.8 1.5 26.6 2 35.9.7 12 1.2 22.4 2 37.1 1.3 27.8 1.6 32.6 2 41 .3 4.9.7 14.2 1 20.5.3 6.3.7 15.1 1 19.5.2 4.4.7 13.8 1 21 .3 7.1.8 16.8 1.1 21.5.2 4.7.6 14.3.9 21.5.3 7.1.7 16.1 1 20 .2 3.8.7 13.7 1 22 .3 8.2.8 18.1 1 22 .2 3.8.7 13.5 1 21.5.3 8 .8 19.2 1 25 .3 5.8.7 15.7 1 22 .3 6.3.7 16.4 1 22.5.3 6 .7 16.8 1 24 .3 7.1.7 17.9 1 24 .3 6 .7 16.6 1 23.5.5 11.9.7 16.9 2 51 .3 8 .7 19 1 24.5.2 5.5.7 17 1 25.5.3 8.5.8 20.4 1 26.5.5 10.6.9 23.1 2 51.5.3 7.4.7 19.1 1 26 .2 6.9.7 19.7 1 28.5.3 8.8.8 21.2 1 27.5.3 6.3.7 18.9 1 28 .3 9.1.8 21.4 1 27.5.2 6 .7 18.9 1 28.5.3 9.6.8 23.6 1 31 .2 7.4.7 21.4 1 31 .3 9.6.8 23.3 1 30.5.3 7.1.7 20.9 1 30.5.3 9.6.7 23.3 1 30.5 1.5 49.2 1.8 60.9 1.9 76.5 0 9.6-.3 24.9-.8 34-.5 9.1-1 19.6-1.1 23.5-.2 3.8-.6 12.4-.9 19-.3 6.6-.8 17.8-1.1 25-.3 7.1-.8 15.9-1 19.5-.2 3.6-.7 12.3-1 19.5-.2 7.1-.7 16.6-1 21-.2 4.4-.7 13.4-1 20-.9 18.8-1.5 30.3-2 39.5-.9 17-1.5 27.7-2 38.5-.3 6-.7 14.6-1 19-.5 7.6-.9 16-2 36-.3 4.9-.7 13-1 18-.3 4.9-.8 13-1.1 18-.2 4.9-.7 12.4-.9 16.5-.2 4.1-.6 11.3-.9 16-.3 4.7-.8 12.8-1.1 18-.3 5.2-.8 12.4-1 16-.2 3.6-.7 10.5-1 15.5-1.7 27.4-2.6 41.4-4 60-.2 3.8-.7 11-1 16-.3 4.9-.8 11-1 13.5-.4 4.8-1.3 16.8-2 26.5-.6 8.4-1.5 19.2-2 24-.2 2.2-.7 8-1 13-.3 4.9-1 12.4-1.5 16.5s-1.2 11.1-1.5 15.5c-.4 4.4-.8 8.7-1 9.5-.1.8-.6 4.6-1 8.5-1.3 13.7-2.8 23.6-5 33.5-3 13.1-3.6 11.5 5.2 13.8 4.3 1.1 9.8 2.4 12.3 2.7 2.5.4 5.2.8 6 1 .8.1 3.8.6 6.5.9 2.8.4 6.1.9 7.5 1.1 1.4.2 5.2.6 8.5 1 6.5.7 7.5 1.1 7.5 2.7 0 .9-12.1.4-13.9-.6-.9-.6-32.1 40-32.1 41.7 0 2.7 2.4 2.4 7-.8 6.6-4.7 7.9-4.9 9-1.9 1.1 2.8.7 6.7-2 17.4-2.1 8.2-8.5 26.9-11.9 34.4-2.6 5.9-2.6 6.2-.3 6.8 1.4.4 2.4-.6 4.1-4.5 5-10.8 16.6-18.1 28-17.5 6.2.3 6.3.4 4.6 9.2l-.8 3.9 7.2-.5c7.9-.6 11.1-2.4 11.1-6.4 0-2.4-4.7-6.6-8.8-7.9-1.7-.5-2.1-1.2-1.8-3.3.3-1.5.8-6.3 1.1-10.7.3-4.4.8-9.9 1-12.2.5-5.7 1.8-36.3 1.6-39.1l-.1-2.4 15.3.7c8.3.3 19.3.8 24.2 1.1 21.5.9 96.1 3 140 3.9 75.3 1.5 74.2 1.4 112 3 6.6.3 19.9.8 29.5 1.1 23.2.7 38.9 1.2 59.5 1.9 9.4.3 23.3.8 31 1 12.8.4 21.3.6 68.5 2 8.5.2 24.3.7 35 1 26 .7 49.3 1.4 73.5 2 11 .3 27.4.7 36.5 1 17.2.4 58.3 1.5 82.5 2 12.8.3 43.2 1 81 2 8.3.2 26.5.7 40.5 1 14 .3 33.4.8 43 1 9.6.3 28.8.7 42.5 1 13.8.3 32.9.7 42.5 1 9.6.2 28.5.7 42 1 13.5.3 33.1.7 43.5 1 18.3.5 40.1 1 85 2 20.2.5 34 .8 80.5 2 11.8.3 29.2.8 38.5 1 18.5.4 50.2 1.2 79.5 2 44.7 1.3 53.6 1.5 72 2 10.7.3 26.5.7 35 1 8.5.3 23.6.7 33.5 1 9.9.3 25.2.7 34 1 8.8.3 23.2.8 32 1 8.8.3 22.5.7 30.5 1 8 .3 21.5.7 30 1 8.5.3 20.5.8 26.5 1 6.1.3 18.2.7 27 1 8.8.3 20.1.8 25 1 5 .2 15.5.7 23.5 1 8 .3 18.6.8 23.5 1 5 .2 15.1.7 22.5 1 7.4.3 17.1.8 21.5 1 4.4.2 14.1.7 21.5 1.1 22.8 1.1 36.4 1.9 51.5 2.9 3.3.2 10.1.7 15 1 5 .3 11.5.8 14.5 1 17.8 1.3 21.8 1.7 25 2 1.9.2 7.2.7 11.8 1 4.6.4 9.1.8 10 1 .9.2 2.9.4 4.4.4 1.6.1 4.1 1.5 6.5 3.7 10.9 10.4 22.1 18.4 25.5 18.4 2.4 0 2.3.8-.7 3.2-2.6 2.1-3.2 4.2-1.4 5.4.9.5 9.1-4.5 10.9-6.6 1.2-1.5 15.8-8.9 16.4-8.3.3.4.6.1.6-.5 0-1.1 2.8-2.5 19.5-10.2 14.3-6.6 40.4-16.3 46.5-17.4 1.9-.4 4.4-1.3 5.5-2.1 1.7-1.3 1.7-1.7.5-2.9-1.3-1.2-2.1-1.2-5.2-.2-6.5 2.3-11.2-1.6-17.2-13.9-7.5-15.3-15.3-47-20.1-81-.3-2.2-.8-5.1-1-6.5-.3-1.4-.7-4.8-1.1-7.5-.3-2.8-.7-6.1-1-7.5-.2-1.4-.6-5-.9-8-.3-3-.8-6.4-1-7.5-.2-1.1-.7-5.6-1-10-.4-4.4-.8-8.2-1-8.5-.2-.3-.6-4.6-1-9.5-.3-5-.8-10.1-1-11.5-.2-1.4-.7-5.7-1-9.5-.3-3.9-.8-9.5-1-12.5-.3-3-.7-8.9-1-13-.3-4.1-.8-9.5-1-12-.8-9.1-1.6-20.7-2-28.5-.2-4.4-.7-11.6-.9-16-.5-7.4-.9-13.3-2.1-35.5-.3-4.7-.7-13.5-1-19.5-.2-6.1-.7-16.4-.9-23-.5-11.5-.9-20.6-2.1-52-1.5-39.7-2.9-100.3-4.1-178.5-1-58.8-1-297.1 0-369.5 1.6-120.4 3.4-213.8 6.1-317.5.9-32.7 2.4-83.3 3-101.5.3-7.7.7-22.3 1-32.5.3-10.2.8-23.5 1-29.5.2-6.1.7-18.4 1-27.5 1.1-33.3 2.4-67.4 3-79.5.2-4.4.7-15.4 1-24.5.3-9.1.8-20.3 1-25 .3-4.7.7-14.6 1-22 .3-7.4.8-18 1-23.5.3-5.5.7-15 1-21 .2-6.1.7-16 1-22 .3-6.1.8-14.8 1-19.5 1.5-31.8 2.4-48.3 3-57.5.2-3.3.6-11.2 1-17.5.3-6.3.8-14.4 1-18 .2-3.6.7-11 1-16.5.3-5.5.8-13.2 1-17 .3-3.9.7-11.1 1-16 .5-9.2 1.2-18.8 2-30.5.2-3.6.7-10.1 1-14.5.3-4.4.8-10.5 1-13.5.2-3 .7-9.3 1-14 .3-4.7.8-10.5 1-13 .2-2.5.7-7.9 1-12 .6-8.3 1.4-17.6 2-23 .2-1.9.7-7.3 1.1-12 .3-4.7.8-9.6.9-11 .2-1.4.3-3.1.4-3.8.2-3 6.2 3.4 19.6 20.7 7.7 10 14.2 18.1 14.5 18.1.3 0 1.1-.4 1.9-.9 1.1-.7-.1-3.6-5.7-13.7-6-11.1-20.3-39.9-25.6-51.6-.9-2-1.4-4.2-1.2-5 .3-.7.7-3.6 1-6.3 1-8.7 1.6-12.9 2.1-15.5.2-1.4.7-4.8 1.1-7.5.6-5.1 4.4-20.6 5.8-23.7.6-1.3.1-1.7-2.6-2-5.2-.5-13 1-15.8 3-8.5 6.2-8.1 21.8 1 45.9 2 5.3 2.8 9.1 2.6 11.8-.2 2.2-.4 5.2-.5 6.7-.2 4.1-1.6 3.4-6-3-6.8-9.9-8.8-11.9-10.2-10.5-1.7 1.7-.6 3.8 7.4 14.5 3.6 4.8 5.8 8.4 4.9 8.1-.8-.4-3.8-1.7-6.5-3-9.1-4.4-39.4-12.3-60.9-15.9-3.3-.6-3.7-.9-3.6-3.8 0-1.7.9-3.9 1.9-4.9 2.4-2.3 2.4-2.9-.2-4.5-1.8-1.1-2.4-1.1-3.9.3-1.8 1.6-7.8 2.7-22.5 4.2-12.3 1.2-24.7.9-39.2-1-7.2-1-15.7-2-19-2.2-3.2-.3-7.4-.7-9.3-1-1.9-.2-6.4-.7-10-1-3.6-.3-8.1-.8-10-1-1.9-.2-6.6-.7-10.5-1-3.8-.3-9-.8-11.5-1-2.5-.2-7.9-.7-12-1-4.1-.3-9.5-.8-12-1-2.5-.2-8.1-.7-12.5-1-4.4-.3-10.2-.7-13-1-2.7-.2-9.7-.7-15.5-1.1-5.8-.3-12.1-.8-14-.9-1.9-.2-8.9-.7-15.5-1-6.6-.3-14-.8-16.4-1-2.5-.3-9.7-.7-16-1-6.4-.3-14.7-.8-18.6-1.1-7.6-.4-21.1-1.1-37.5-1.9-5.8-.2-15-.7-20.5-1-12.9-.7-25.9-1.2-68.5-3-19.5-.8-62.3-2.3-83-3-8-.3-21.7-.7-30.5-1-8.8-.3-24.5-.7-35-1-10.4-.3-26.9-.7-36.5-1-36.4-1-67.4-1.7-132.5-3-35.5-.8-61.4-1.2-193-3-136.2-1.9-277.5-2.7-759-4-199.3-.6-262.6-1.2-293.5-3.1-5.8-.3-13.2-.7-16.5-.8-5.1-.2-7.9-1.2-18.5-6.5C11.1 12.7 4.8 9 3.8 8 1.9 5.6 1.4 5.5.7 7.4zM1989 73.5c1.4.2 3.9.7 5.5.9 3.8.6 16.2 2.5 19.5 3 1.4.3 2.7.5 3 .5.3.1.5 30.1.6 66.9.1 67.7.7 113.7 2.9 206.2.3 14 .8 34.5 1 45.5.2 11 .7 29.4 1 41 .5 20.2 1 37.7 2 81.5.3 11.3.7 29 1 39.5.3 10.4.7 27.8 1 38.5.3 10.7.7 26.5 1 35.1.2 8.6.7 25.4 1 37.5.5 21.4 1 37.7 2 73.9.3 9.9.7 27 1 38 .9 32.5 1.4 50.9 2 70.5.3 10.2.7 26.6 1 36.5.3 9.9.7 26.8 1 37.5.6 19.6 1 35.7 2 74.5.3 11.5.8 27.5 1 35.5.3 8 .7 23.3 1 34 .2 10.7.7 28.3 1 39 .3 10.7.7 27.4 1 37 .2 9.6.7 26.7 1 38 .3 11.3.8 28.4 1 38 .3 9.6.7 26.9 1 38.5.3 11.5.8 27.7 1 36 .2 8.2.6 26 1 39.5.9 37.8 2.2 90.2 3 122.5.3 12.1.8 31.7 1 43.5.6 21.4.9 36 2 87.5.3 14.8.8 35.8 1 46.5.4 20 1.4 69.6 2 106 2.7 154.9 2.7 300 0 340.5-1.2 19.2-2.2 23.2-5.5 21.5-1.9-1-11.7-3.4-18-4.4-1.9-.3-4.4-.7-5.5-1-2.4-.4-9-1.3-16-2.2-8.9-1-9.8-1.3-12.9-4.2-1.7-1.6-5.1-4.8-7.6-7.1-3.5-3.2-4.2-4.3-3.1-5 .8-.5 1.1-1.6.8-2.5-.8-2-4.4-3.4-10.5-4.2-2.6-.3-5.8-.7-7.2-.9-3.5-.5-24.1-2-43-3-21.2-1.1-29.8-1.5-43.5-2-13.5-.5-19.9-.8-55.5-2-21.4-.7-46.5-1.4-72-2-11.3-.3-29.5-.7-40.5-1-29.6-.8-59.8-1.4-89-2-14.3-.3-37.7-.7-52-1-43-.8-120.1-2.2-172.5-3-19-.3-46.2-.7-60.5-1-14.3-.3-44-.7-66-1-22-.3-53.9-.7-71-1-62.9-.9-154.9-2.2-217-3-23.6-.3-57.8-.8-76-1-18.1-.3-50.8-.7-72.5-1-21.7-.3-55.5-.7-75-1-19.5-.3-52.4-.7-73-1-20.6-.3-52.1-.7-70-1-17.9-.3-48.7-.7-68.5-1-19.8-.3-49.7-.7-66.5-1-16.8-.3-45.1-.7-63-1-69.9-1-101.7-1.8-126-3-4.1-.2-14.9-.6-24-1-9.1-.3-19.6-.8-23.5-1-3.8-.3-12-.7-18-.9-6.1-.3-15.3-.7-20.5-1-5.2-.3-14-.8-19.5-1.1-16-.8-26.5-1.4-34-2-3.8-.3-10.8-.8-15.5-1-10.8-.6-19.9-1.3-27.5-1.9-3.3-.3-8.7-.8-12-1.1-13-1-21-1.8-21.3-2-.2-.2-.2-9.7-.1-21.2.1-11.4.2-56.4.2-99.8 0-83.7-.6-145.3-2.8-255-.9-50.5-2.3-111.3-3-134.5-.2-8.5-.7-27.2-1-41.5-.4-14.3-.8-31.4-1-38-1.4-42-1.8-62.1-1.8-86-.1-24.6.3-36.9 1.8-64.5.3-5.2.8-15.4 1-22.5.9-23.5 1.5-36.8 2-47.5.2-5.8.7-16.8 1-24.5.3-7.7.8-18.5 1-24 .2-5.5.7-16.8 1-25 .3-8.3.7-20.2 1-26.5.3-6.3.7-17.9 1-25.6.3-7.8.7-19.3 1-25.5.5-10.9.9-24.2 2-55.9.3-8 .7-19.9 1-26.5.2-6.6.7-19.7 1-29 .3-9.4.8-22.9 1-30 .3-7.2.7-19.8 1-28 .2-8.3.7-21.8 1-30 .9-27.2 1.5-44.8 2-63 .3-9.9.7-24.8 1-33 .2-8.3.7-23.6 1-34 .3-10.5.7-26.7 1-36 .3-9.4.7-26.7 1-38.5.3-11.8.7-28.9 1-38 3-121.2 3.9-184.5 3.9-290.5.1-99.5-.5-131.3-2.9-160.6-1.1-13.5-2.1-21.6-3.5-26.7l-.8-3.2 8.1-.1c11.3-.1 39.5-.6 68.2-1.4 13.2-.3 31-.8 39.5-1 8.5-.2 24.3-.7 35-1 10.7-.3 27.4-.8 37-1 9.6-.3 24.9-.7 34-1 9.1-.3 23.9-.7 33-1 9.1-.2 24.2-.7 33.5-1 9.4-.3 23.5-.8 31.5-1 19.5-.6 45-1.4 64.5-2 8.8-.3 23.4-.7 32.5-1 9.1-.3 23-.8 31-1 20.8-.7 45.2-1.4 62-2 22.8-.7 45.1-1.4 63.5-2 9.4-.3 22.2-.7 28.5-1 6.3-.3 20.3-.7 31-1 10.7-.3 24.7-.7 31-1 6.3-.3 19.4-.7 29-1 9.6-.3 23.1-.8 30-1 6.9-.3 19.3-.8 27.5-1 8.3-.3 22-.7 30.5-1 8.5-.3 21.4-.8 28.5-1 7.2-.2 20.2-.7 29-1 8.8-.3 22.1-.8 29.5-1 7.4-.3 20.3-.7 28.5-1 8.3-.3 21.5-.8 29.5-1.1 17.7-.6 32-1.1 55-1.9 9.6-.3 22.2-.7 28-1 5.8-.2 17.7-.7 26.5-1 8.8-.3 21.4-.7 28-1 6.6-.3 19-.7 27.5-1 17.5-.6 34.8-1.2 56-2.1 8-.3 19.5-.7 25.5-.9 24-.8 43.5-1.6 53.5-2 11-.5 31.3-1.3 51.5-2 36.2-1.4 62.5-2.4 77-3 6.1-.3 17.5-.7 25.5-1 17.9-.6 36-1.3 50.5-2 20-.8 50.9-2.1 73-3 13.9-.5 31.7-1.3 46-2 20-.9 37.2-1.7 46.5-2 13.7-.5 35.2-1.5 44.5-2 4.4-.2 14-.7 21.3-1 7.3-.3 17-.7 21.5-1 4.5-.2 14.1-.7 21.2-1 17.3-.8 29-1.4 40.5-2 10.2-.5 21-1.1 38.5-2 6.1-.3 14.4-.8 18.5-1 4.1-.3 11.6-.7 16.5-1 5-.2 13.1-.7 18-1 5-.3 11.9-.8 15.5-1 14.2-.8 27.5-1.8 27.8-2 .5-.4 13.2.3 16.2 1z"/><path d="M967.7 135.6c-.1.1-7.2.5-15.7.8-15.5.7-24.1 1.2-33.5 2.1-2.7.2-7.7.7-11 1-3.3.3-7.6.8-9.5 1-1.9.3-5.4.7-7.7 1-2.4.3-6.1.7-8.3 1-2.1.3-5.4.8-7.2 1-3.6.4-10.1 1.5-13.3 2.1-1.1.3-3.6.7-5.5 1-15.5 2.4-51.9 10.4-68.5 15.1-4.9 1.4-9.4 2.6-10 2.7-.5.2-3 .9-5.5 1.6-2.5.7-4.9 1.4-5.5 1.6-9.1 1.9-54.5 18.5-76.6 27.9-19.1 8.2-49.8 22.9-63.2 30.4-1.8 1-7 3.9-11.7 6.5-43.5 24.2-93.5 59-131.4 91.6-56.2 48.1-104.1 99.6-148.5 159.5-8.6 11.5-16.7 22.6-18.1 24.5-40.9 58.1-81.6 129.8-110.3 194-1.3 3-3.4 7.7-4.7 10.5-3.8 8.5-5 11.3-10.7 24.8-3 7.3-7.5 18.4-9.9 24.7-2.5 6.3-5.6 14.2-6.9 17.5-11.3 28.9-29.1 83.2-39.5 120.5-1.8 6.3-4.6 14-6.3 17-1.7 3-3.2 5.9-3.3 6.5-.4 2.9-1.6 15.2-1.6 16.5 0 .8-.8 5.1-1.9 9.5-1 4.4-2 9.2-2.3 10.7-.2 1.5-.7 3.1-.9 3.5-.3.5-.8 2.4-1.1 4.3-.3 1.9-.8 4.4-1 5.5-3.6 15.7-5.5 24.7-6 28-.4 2.2-1.1 5.6-1.6 7.5-.5 1.9-1.1 5.1-1.4 7-.3 1.9-1.4 8-2.5 13.5-2.2 11-6.7 37.8-8.6 51-.3 2.3-.7 5-.9 6-.3 1.8-.6 4.1-2.1 15.5-.2 1.9-1.1 8.5-2 14.7l-1.5 11.1 2.6 5.9c12.9 28.9 39.9 108.5 52 152.8 3.1 11.3 34 117.1 36.9 126 .7 2.2 2.2 7.4 3.5 11.5 1.2 4.1 2.6 8.4 3 9.5.5 1.1 3.4 9.9 6.5 19.5 5.2 15.8 19.7 56 23 63.5.8 1.6 3.8 8.8 6.8 16 23 54.6 50 101 83.1 143 17.2 21.9 43.3 49.3 63.2 66.5 2.2 1.9 6.5 7.1 9.4 11.5 9.4 14.2 24.5 33.7 36 46.9 13.2 15 26.6 28.3 49.5 48.9 20 18.2 59.4 45.4 90.5 62.7 53 29.4 110 51 178 67.5 9.8 2.4 47.3 9.7 56 11 2.5.3 5.6.8 7 1 1.4.2 3.9.6 5.5.9 1.7.3 5.4.8 8.4 1.1 3 .4 6.1.8 7 1 1.8.3 14 1.6 18.6 2 5.3.5 16.9 1.6 21 2 24.9 2.7 107.1 2.7 129 .1 1.7-.2 6.5-.7 10.7-1.1 4.3-.3 9.2-.8 11-1.1 1.8-.2 5.5-.6 8.3-1 2.7-.3 5.1-.7 5.4-.9.2-.2-6.4-.4-14.5-.3-15.1.1-15.2.1-40.9-5.8-1.1-.2-12.3-3.1-25-6.4-12.6-3.3-23.7-6.2-24.6-6.4-21.3-5.5-78.2-23.8-107.9-34.6-119.2-43.5-221.8-99-300.5-162.4-15.7-12.7-12.9-10.3-24.5-20.6-16.6-14.6-39.2-36.8-51-50-9.1-10.3-10.7-11.8-13.9-13.4-11-5.7-35-23.8-48-36.1-47.4-45.1-79.3-100.9-104.9-184-6.2-19.9-14-49-15.5-57.5-.3-1.4-1.2-5.4-2.1-9-.9-3.6-1.8-7.4-2-8.5-.2-1.1-2.2-11-4.4-22-2.3-11-5-25.2-6.1-31.5-1.2-6.3-2.3-12.6-2.6-14-.3-1.3-.7-4-1-6-.3-1.9-1.6-9.6-2.9-17-2-11.8-2.4-15.5-1.3-13.9 4.8 7.2 26.5 34.9 36.4 46.4 21.4 24.8 53 56.1 79.3 78.5 4.7 4 9.9 8.4 11.5 9.9 13.6 11.8 50.7 39.3 73.5 54.3 22.5 14.8 48.1 30.2 72 43.3 8.3 4.5 53.6 27 63.5 31.5 69.8 31.7 146.2 57.3 226.7 76 7 1.6 13.7 3.1 15 3.4 1.3.2 10.2 2 19.8 4 9.6 1.9 20.2 4 23.5 4.5 3.3.6 7.1 1.3 8.5 1.6 1.4.3 8.1 1.4 15 2.5 10.7 1.7 20.3 3.4 27.2 4.6.9.1 3.8.6 6.5 1 2.6.5 5 .9 5.3.9.3.1 3 .5 6 .9 3 .5 6.4 1 7.5 1.2 1.1.3 7 1.1 13 2 6.1.8 12.1 1.7 13.5 1.9 3.1.6 15.7 2.2 22.5 3 2.8.3 8.4 1 12.5 1.5s9.9 1.2 12.8 1.5c2.8.3 7.3.7 10 1 2.6.3 7.2.7 10.2 1 3 .3 8 .7 11 1 13 1.2 16 1.5 25.5 2.1 5.5.3 12 .7 14.5 1 2.5.2 10.1.6 17 .9 6.9.3 15.5.8 19.3 1 7.9.5 9-1 1.5-2-2.9-.4-6.4-.8-7.8-1-1.4-.2-4.5-.7-7-1-2.5-.3-5.6-.8-7-1-1.4-.2-11.5-1.8-22.5-3.5s-21.1-3.3-22.5-3.5c-1.4-.2-4.2-.7-6.4-1-2.1-.4-4.8-.8-5.9-1.1-1.2-.2-3.9-.6-6.2-1-2.2-.3-5.9-1-8.3-1.5-2.3-.5-5.9-1.2-8-1.4-2-.3-4.8-.8-6.2-1.1-5.7-1-6.9-1.3-10.1-1.8-1.9-.3-8.1-1.4-13.9-2.5-5.8-1.1-12.1-2.3-14-2.6-28.9-4.7-66.4-15.3-124-35-45.6-15.7-109.2-40.9-143.9-57.1-5.1-2.4-9.5-4.4-9.7-4.4-2.5 0-76.6-37.3-99.9-50.2-4.9-2.8-10.8-6-13-7.2-18.2-10.1-42.9-24.8-67.3-40.1-35.1-22-78.6-52.9-113-80.4-13.1-10.5-40.6-33.6-45.2-38-.9-.9-6.3-5.9-12-11.1-42.9-39.2-83.3-85.2-111.2-126.5-14.8-21.9-14.2-20.7-16.4-37.4-.2-1.9-.6-4.6-.9-6-.9-5.8-5.6-34.8-6.1-38.1-1.4-8.8-8.6-50.5-10.2-59.1-1-5.3-2-12.8-2.2-16.5-1-18.8-.1-67 1.4-79.9.2-1.7.7-6.2 1-10 .4-3.9.9-8.1 1.1-9.5.2-1.4.7-4.8 1-7.5.3-2.8 1-7.7 1.5-11s1.2-7.8 1.4-10c.8-5.8 7.2-37.6 9.6-47.5 1.2-4.7 2.3-9.6 2.6-11 .7-3.6 6.6-12.8 16.5-26.1 58.5-78.5 158.8-139.4 280.9-170.8 14-3.6 45.5-10.3 54.8-11.7 2-.3 4.8-.8 6.2-1 1.4-.3 3.2-.6 4-.6.8 0 3.5-.4 6-.8 2.5-.5 7-1.1 10-1.5 3-.3 6.6-.8 8-1 2.5-.4 12.1-1.4 19.5-2.1 2.2-.2 8.7-.6 14.5-.9 5.8-.3 11.5-.8 12.8-1.1 1.2-.2 2.2-.2 2.2 0s-.9 4.2-2 8.8c-1 4.6-2.2 9.9-2.5 11.8-.3 1.9-.8 4.2-1 5-.2.8-.6 3.7-1 6.5-.3 2.7-.8 5.7-1 6.5-.2.8-.7 4.2-1 7.5-.4 3.2-.8 6.2-1 6.5-.1.3-.6 3.6-1 7.3-.3 3.7-.8 7.6-1 8.6-.2 1-.6 4.2-1 7.2-.3 3-.8 6.5-1 7.9-.2 1.4-.7 5.4-1.1 9-.3 3.6-.7 7.2-.9 8-.1.8-.6 4.6-.9 8.5-.4 3.8-.9 8.1-1.1 9.5-.6 4.5-1.5 12.4-2 19.5-.3 3.8-.8 8.1-1 9.5-.2 1.4-.6 4.7-.9 7.5-.3 2.7-.8 7.9-1.2 11.5-1.1 10.5-1.1 11.1-1.8 19.5-.4 4.4-.9 9.6-1.1 11.5-.3 1.9-.7 6.7-1 10.6-.2 3.9-.7 8.6-.9 10.5-.3 1.9-.8 7.2-1.1 11.9-.3 4.7-.8 10.3-1 12.5-.5 4.4-1.2 13.2-2 24-.5 6.6-1 13.3-2 27-.8 10.2-2.4 34.8-3 46.5-2.1 42.4-2.5 66.7-1.2 79 1.3 12.3 1.5 19.1.6 22.5-.8 3.1-1.3 7.8-2.5 22-1.3 14.5-.6 48.3 1 57.3.2.9.7 4.4 1.1 7.7 1.2 11.3 5.5 31.1 9.2 43 14.4 46.2 34.7 80.9 65.6 111.8 9.5 9.4 11.3 10.7 13.6 10.3 1.4-.3 5.8-.8 9.6-1.1 3.9-.3 8.6-.8 10.5-1 1.9-.3 6.2-.7 9.5-1 3.3-.3 7.9-.8 10.2-1.1 2.4-.2 7.1-.7 10.5-.9 3.5-.3 8.8-.7 11.8-1 3-.4 8-.8 11-1 6-.4 19.5-1.5 25-2 1.9-.2 8.7-.6 15-1 6.3-.3 13.5-.8 16-1 26.1-2.3 104.9-2.3 117.3.1 1 .2 4.8.6 8.5 1 3.6.3 7.3.7 8.2.9.8.1 3.5.6 6 1 13.1 2.1 29.1 6.8 39.2 11.5 2.5 1.2 3 1 8-3.5 2.9-2.6 13.3-10.1 23.2-16.7 9.9-6.6 20.7-14.1 24-16.6 27.6-21.2 30.3-40.2 8.7-61-5.5-5.2-19.6-15.4-25.8-18.6-3.2-1.6-3.3-1.6-3.3.3 0 5.9-11.3 19.6-21.3 25.9-3.4 2.1-14.3 8-24.2 13-21.3 10.9-28.2 15.7-39.8 28-8.5 9-25.8 16.7-44.2 19.6-21.5 3.5-59.6 4-77.6 1.1-1.3-.2-4.8-.6-7.7-.9-7.9-.9-12.2-1.6-17.2-2.6-2.5-.5-5.9-1.2-7.5-1.5-5.5-.8-21.9-5.3-27.5-7.4-8.2-3.1-61.3-43.3-79.8-60.5-29.1-26.9-46.8-49.4-59.8-75.7-4.1-8.3-10.9-28.2-11.9-34.9-.4-2.5-.8-4.7-1-5-.5-.8-1.8-17.6-1.9-24-.1-6.6 1.4-22.3 2.8-29.5 1.8-9.3 7.6-27.6 8.5-27.1.5.3 1.8-2 2.9-5.2 2-5.6 8.8-29.5 9.7-34.1.2-1.3 1.1-4.7 1.9-7.5.8-2.8 1.7-6.2 1.9-7.6.3-1.4 1.2-5.2 2.1-8.5.8-3.3 2.2-9.4 3.1-13.5.9-4.1 1.8-8.2 2-9 .7-2.6 6.4-28.4 6.9-31 .3-1.4 1.9-9.3 3.6-17.5 6.4-31.1 14.6-75.1 18.4-99 .3-1.7 1.2-7.1 2-12 .8-5 1.8-11 2.1-13.5.3-2.5 1-7 1.5-10s1.2-7.5 1.5-10c.3-2.5.8-5.7 1-7.1.5-2.7.9-5.9 2-14.9.3-3 .8-6.6 1-8 .3-1.4.7-5 1-8 .3-3 .7-6.4.9-7.5.2-1.1.7-5.2 1-9 .4-3.9.9-8.1 1.1-9.5.5-3.8 1.4-12.6 2.1-21.5.4-4.4.8-9.4 1-11 .3-3.4 1.6-23.8 1.9-30.5.5-9.5.7-9.4 2.9 2.5.3 1.6.8 4.1 1.1 5.5.3 1.4.8 3.5 1.1 4.8 1.1 5.6 8.5 26.6 11.8 33.7 3.2 7 10.4 20.4 13.9 26 3.6 5.7 17.1 21.9 23.7 28.4 8.1 7.9 21.5 18.3 32 24.7 15.5 9.6 41.7 20.9 64.7 27.9 60.5 18.5 70.6 21.5 84.3 24.8 8 2 16.3 3.8 18.5 4.1 2.2.4 4.7.8 5.5 1.1 7.8 2.1 28.1 2.6 34.5.8 3-.8 11.8-1.5 22.5-1.7 17-.4 28.8-1.1 36-2.1 1.9-.3 6.7-.9 10.5-1.5 23.1-3.2 43.1-11.5 48.6-20.2l2-3.3-.6 9c-.3 4.9-.8 10.3-1 12-.2 1.6-.7 5.7-1 9-.3 3.3-.7 7.1-1 8.5-.2 1.4-.7 5-1 8.1-.3 3.1-.7 6.5-.9 7.5-.2 1.1-.7 4.4-1 7.4-.4 3-.8 6.6-1 8-.2 1.4-.7 4.6-1 7.1-.4 2.5-.9 5.7-1.1 7-.2 1.3-.6 4.2-.9 6.4-.4 2.2-.8 5.1-1.1 6.5-.2 1.4-.7 4.3-1 6.5-.3 2.2-.9 6.2-1.5 9-.5 2.7-1.1 6.8-1.4 9-.3 2.2-1 6.7-1.6 10-.6 3.3-1.3 7.3-1.6 9-.4 2.9-1.6 9.4-1.9 10.5 0 .3-.4 2.7-.9 5.3-.4 2.7-.9 5.8-1.2 7-.2 1.2-.6 3.9-.9 6.2-.3 2.2-.8 4.7-1.1 5.6-.3 1-.6 3-.9 4.5-.4 3.5-6.4 35.3-10.6 56.4-1.7 8.5-3.3 16.6-3.5 18-.7 4-9.2 46.3-12.4 61.5-1.6 7.7-5.4 26.1-8.5 41-3.1 14.8-5.9 27.9-6.1 29-.3 1.1-.9 4-1.4 6.5-.5 2.5-1.2 5.6-1.5 7-.3 1.4-.8 3.8-1.1 5.5-.2 1.6-.9 4.6-1.4 6.5-.5 1.9-1.1 4.6-1.4 6-.2 1.4-.7 4.2-1.1 6.3l-.8 3.9 4.4-.6c2.4-.3 6.6-.8 9.2-1.2 9.8-1.1 31.2-9.3 30.5-11.6-.2-.6-2.8-2.3-5.8-4-5.9-3.2-7.7-4.6-4.5-3.4 3.1 1.2 5.5 1.7 11.5 2.4l5.5.7-2.7 1.9c-1.6 1-2.8 2.2-2.8 2.5 0 .4 1.9 2.1 4.3 3.8 9 6.5 13.1 12.3 14 20.1.2 2.5 1.4 5.3 2.7 6.7 3.1 3.3 16 8.1 26.9 10 1.9.3 3.7.7 4 .9.3.2 2.2.7 4.1 1 1.9.3 6.5 1.2 10.2 1.9 5.4 1.2 7.1 1.2 8.5.2 2-1.3 7.2-3.1 11.8-4 5.9-1.1 14.1-2.4 19.5-3 3-.3 6.6-.8 8-1 1.4-.2 5.9-.6 10-1 4.1-.3 9.1-.8 11-1 3.2-.4 10.2-1 22.2-2 2.5-.2 6.6-.6 9-.9 2.4-.3 6.8-.8 9.8-1.1 3-.3 7.2-.8 9.3-1 2-.3 5.6-.7 8-1 65.7-8.1 105.3-24.1 116.2-47 3-6.5 4.6-15 3.1-16.8-.9-1.1-12-5.7-13.7-5.7-.3 0-1.3 1.6-2.4 3.6l-1.9 3.5-2.4-4.6c-1.5-3-2-5.1-1.4-5.7.6-.6-.1-2-1.9-3.8-3.5-3.4-3.6-5.8-.7-9.5 2.4-3 12.2-7.9 18-9 2-.4 4.3-1.4 5.1-2.3 2.4-2.7 15.8-29.4 22.9-45.7 25.4-57.9 50.2-134.9 62.3-193 2.2-10.6 2.2-10.3 3-15.5.4-2.5.9-5.4 1.2-6.5.2-1.1.6-3.4.8-5 .2-1.7.7-4.8 1-7 .4-2.2.8-5.1 1-6.5 2.1-13.8 2.6-39.7 1-49.6-.7-4.3-2.2-10.3-3.4-13.2-1.1-2.8-1.9-5.2-1.7-5.2 1.2 0 31.5 15.2 42.6 21.3 41.7 23 85.6 54.2 117 83.1 7.7 7.1 34.4 33.9 41.1 41.2 17.7 19.3 39.1 47.1 54.8 71.1 10.8 16.5 12.2 18.8 17.7 28.3 1.7 3 4.1 7.3 5.4 9.5 4.4 7.8 17.6 34.1 22.4 45 20.5 45.8 35.6 98 42.1 144.8.3 2.7.8 5.8 1 6.9.2 1 .7 4.7 1 8.1.3 3.4.8 7.5 1 9.2 1.8 13.9 2.5 58.8 1.3 76.5-.6 8-1.1 9.5-8.1 24-10.5 21.8-19.9 46.7-26.3 69.5-2.5 8.6-10.2 39.1-11 42.8-.2 1-.6 2.7-.9 3.7-.3 1-.8 2.7-1 3.8-1.1 5.8-8.8 31.1-11.8 38.5-1.9 4.8-3.3 8.7-3 8.7.2 0 2.2-1.7 4.5-3.8 4.3-3.9 5.1-4.6 8.6-7.6 2-1.7 1.8-1-1.4 6-22.4 49.1-54.2 102.9-86.9 146.9-9.7 13-27.7 36-29.4 37.5-.4.3-2.6 3-5.1 6-2.5 3-5.2 6.2-6 7.1-.8.8-4.6 5.1-8.5 9.5-9.6 10.9-46.9 48.1-59 58.8-5.5 4.9-11.3 10-13 11.5-20.7 18.5-62.8 49.5-93.5 68.8-30 18.8-68.6 39.7-93 50.3-4.1 1.8-10.3 4.6-13.8 6.1-25.5 11.7-77.3 30-110.7 39.3-24.1 6.7-67.9 16.6-79.5 18.1-2.3.3-4.5.7-4.9.9-.3.2-3.1.7-6.1 1.1-3 .4-5.7.8-6 1-.3.2-2.9.6-5.9 1-3 .4-6.3.8-7.4 1.1-1 .2-4.5.6-7.6 1-3.1.3-5.8.8-6.1.9-.3.2-3.7.6-7.5 1-3.9.3-7.7.8-8.5 1-.8.2-5 .7-9.4 1.1-4.3.3-8.5.7-9.5.9-.9.2-6 .6-11.4 1s-9.6.9-9.5 1c.3.3 6.4 1.1 15.3 2 3.3.4 7.6.8 9.5 1 25.3 2.9 75 2.4 103.5-1 2.2-.2 6.9-.7 10.5-1 3.6-.3 7.2-.8 8-1 .8-.2 3.5-.7 6-1 2.5-.3 5.6-.8 7-1 12-1.9 15.8-2.6 18-3 1.4-.3 5-1 8-1.6 51.9-10.1 105.2-26.4 166.6-50.8 23.9-9.4 59-24.6 78.9-34.1 5.5-2.6 14.3-6.7 19.5-9.1 9.9-4.5 94.4-46.9 111-55.7 5.2-2.7 13.1-6.9 17.5-9.2 4.4-2.3 12.7-6.7 18.5-9.7 5.8-3.1 13.7-7.3 17.5-9.3 3.9-2.1 13.3-7 21-11 7.7-4 15.4-8.1 17-9 1.7-1 9.3-5 17-9 7.7-4 14.5-7.7 15.1-8.4.6-.6 3.2-8.1 5.8-16.6 5.9-19.5 18-53.3 24.1-67.5.7-1.7 3.8-8.9 6.8-16 14.4-33.9 37.8-82.1 63.2-130 2.3-4.4 8-15.2 12.6-24s10.9-21 14.1-27c39.4-75.1 65.5-136.9 76.4-181 2-8.3 3.7-15.8 4.9-22.3 2.2-11.3 2.6-14 4.1-26.2 2.7-21.7 2.2-50.8-1.2-72.4-2.7-17.7-9.8-43.1-15.6-56.6-1.8-4.1-2-7.4-2.4-37.5-.2-18.2-.5-35.3-.8-38-.2-2.8-.7-8.9-1-13.6-1-13.1-3.1-32.2-5.2-47.4-.4-2.2-.8-5.4-.9-7-.2-1.7-.6-4.4-.9-6-.3-1.7-1.7-9.5-3.1-17.5-1.3-8-2.7-15.6-3-17-.3-1.4-.8-3.9-1.1-5.5-3.8-21.5-20.6-86.3-28.5-110-1.1-3.3-2.2-6.7-2.4-7.5-.9-3.8-14-41.3-20-57.5-11.6-31-28.9-73-39.9-96.8-2-4.3-3.6-8-3.6-8.2 0-.3-4.2-9.4-13-28-5.6-11.8-35.8-72.3-40.2-80.6-2-3.5-5.5-10.2-8-14.9-9.7-18.3-13.2-24.8-16.9-31.3-2.2-3.8-3.9-7-3.9-7.2 0-2-13.1-22.4-19.3-30-94.2-116-179.2-190.2-272.2-237.5-21-10.7-36.4-17.6-53-24-6-2.3-11.9-4.6-13-5.1-6.7-3.1-54.5-17.8-69.5-21.3-.8-.2-3.3-.9-5.5-1.4-2.2-.6-5.1-1.3-6.5-1.6-1.4-.2-6.4-1.4-11.3-2.5-8.1-1.9-43-8.8-48.7-9.6-4.1-.5-10.4-1.5-12.5-1.9-3.6-.7-12.2-2-20.5-3.1-2.5-.3-5.6-.8-7-1-6.4-1-33.3-4.3-49-6-2.5-.3-6.3-.7-8.5-1-2.2-.2-6.7-.6-10-1-3.3-.3-9.8-1-14.5-1.5-12.6-1.4-18.7-1.9-26.5-2.5-7.8-.6-9.9-.8-32.7-3-2.9-.3-8.4-.7-12.3-1-7.6-.6-16.7-1.3-23-2-2.2-.2-7.4-.7-11.5-1-4.1-.3-9.5-.8-12-1-2.5-.2-8.1-.7-12.5-1-4.4-.4-9.1-.8-10.5-1-8-1.2-36.5-2.6-37.3-1.9zM947 236.3c1.9.3 6.9.8 11 1.1 7.1.7 9.1.9 17.8 2.1 5 .7 15.1 2.4 18.2 3 10.1 2 14.4 2.9 20.6 4.6 4.5 1.1 12.2 2 21 2.4 15.2.5 28.1 1.2 38.9 2 3.9.3 9.7.7 13 1 7 .5 16.5 1.4 21.5 2.1 1.9.2 5.6.6 8.1.9 6.1.6 13.8 1.5 16.9 2 1.4.2 5 .7 8 1 3 .3 6.6.8 8 1 1.4.3 3.9.7 5.5.9 8.2 1.3 17.1 2.8 18 3 .6.2 3.3.6 6 1 2.8.4 6.6 1.2 8.5 1.6 1.9.5 5.1 1.1 7 1.4 5.4.9 7.3 1.3 24 5.1 8.5 2 16.6 3.8 17.9 4.1 16.5 3.5 59.8 16.7 88.6 26.9 51.8 18.4 120.3 50.1 168.8 78.1 3.2 1.9 6 3.4 6.1 3.4.2 0 5.2 2.9 11.1 6.5 5.9 3.6 10.9 6.5 11.2 6.5.2 0 2.4 1.3 4.8 3 2.4 1.6 4.6 3 4.9 3 1.1 0 42.6 26.5 65.1 41.5 29.6 19.8 38.9 26.3 76.3 53.8 18.9 13.8 33 23.4 38.7 26.2 28 14 57.9 47.7 86.2 97 22.2 38.6 41.2 82.9 55.9 130.4 3.8 12.3 8.8 29.9 9.9 35.1.2.8 1.7 7.1 3.3 14 1.6 6.9 3.3 14.3 3.7 16.5.5 2.2.9 4.4 1 5 1.7 7.7 3 14.9 4 22 1.1 7.8 1.5 10 1.9 12 .2 1.1.7 4.9 1.1 8.5.4 3.6.8 7.2 1 8 .3 1.4.7 6.3 2.5 27 .9 11.4.9 58.5-.1 68.5-.4 4.4-1 10.9-1.4 14.5-.7 7.7-.8 8-3.4 23.7-3.5 20.6-10.4 46.7-15.7 59.6-2.5 6.1-2.5 6.5-1.8 23.7.3 9.6.9 17.9 1.2 18.4.3.5 0 .6-.6.2-.6-.4-1.9-2.4-2.8-4.4-2-4.5-10.3-21-15.6-31-7.8-14.9-35.8-59.7-38.8-62.2-.4-.3-2.1-2.7-3.9-5.3-1.8-2.7-8.3-11.2-14.3-19-28.5-36.6-65.6-74.9-99.8-103.3-56.6-46.9-114.8-78.7-168.5-92.1-5.8-1.4-29.5-5.3-33-5.3l-4-.1 3.6-1.3c8.8-3.1 13.9-8.1 19.6-19 2.8-5.2 6.7-16.1 7.8-21.5.2-.9.8-3.4 1.3-5.6.6-2.2 1.4-6 1.7-8.5.4-2.4.8-4.7 1-5 .1-.3.6-3.6 1-7.3.3-3.7.8-7.6 1-8.5.9-5 2.1-23.7 4-59.7.4-6.6.8-13.1 1-14.5.2-1.4.6-5 1-8 .3-3 1.1-7 1.7-8.8.8-2.8.4-5.1-2.7-15-2-6.4-4-12.6-4.4-13.7-.5-1.1-2.5-6.5-4.6-12-7.2-19.2-13.6-29.3-35.1-55.5-30.4-36.9-72.8-65.3-127-84.8-19.5-7.1-49.7-16.1-62.4-18.6-1.4-.3-8.8-1.9-16.5-3.6-7.7-1.6-15.3-3.3-17-3.6-1.6-.3-6.1-1.1-10-1.9-3.8-.8-8.8-1.7-11-2-2.2-.4-4.7-.8-5.5-1-.8-.2-2.8-.6-4.5-.9-7.7-1.1-12.2-1.9-14-2.2-7.5-1.5-48.7-7.9-57.2-8.9-2.1-.3-6.3-1-9.3-1.5-3-.5-7.3-1.2-9.5-1.5-2.3-.3-5-.7-6-.9-1.1-.2-4.2-.7-7-1-2.7-.4-5.8-1-6.8-1.2-1.7-.5-1.8-.1-1.2 3.8.6 3.7.3 4.6-1.7 6.5-1.3 1.2-4.4 2.7-7 3.2-5.1 1.2-22.5.7-30-.7-2.7-.5-4.8-.7-4.8-.5 0 .3 1.3 2 2.9 3.8 7.5 8.6 9.6 32.2 5.6 65-.8 7-1.7 13.9-2 15.5-.1.8-.6 3.7-.9 6.5-.4 2.7-1 6.6-1.2 8.5-.6 4.2-3.3 21.4-4 25.3-.5 3.3-4.2 28.7-4.9 33.7-1.3 10.2-1.7 12.8-2 16.2-.2 2.1-.2 3.8.1 3.8 3.2 0 20.2-58.2 24-82.5.3-2.2.7-4.2.9-4.5.9-1.4 7.3-38.4 8.2-46.8.3-3.5 1.1-6.2 1.7-6.2 1.2 0 23.7 6.4 35.1 10 28.7 9.1 56.8 24.2 77.3 41.5 1.2 1 4.6 2.9 7.5 4.1 15.2 6.5 35.8 20.6 48.3 33.2 14.2 14.3 26 34.1 32.9 55.1 2.3 6.9 2.6 9 1.9 12.5-.6 2.2-.7 5.9-.3 8.1.8 4.2.4 20.4-.5 24.4-2.5 10.8-13.7 29.2-24.3 39.9-1.8 1.8-3.3 3.6-3.3 3.9 0 .4-.8 1.5-1.7 2.6-1 1.1-1.3 1.7-.6 1.3.9-.5 1 .4.6 3.1l-.6 3.8 2.9-2.5c1.6-1.4 2.6-2.1 2.1-1.6-.4.5-.1 1.9.7 3.1 1.4 2.1 1.2 2.2-3.7 3.4-2.9.7-6.6 2.1-8.4 3.1-3.1 1.8-3.1 1.8-3.7-.3-1-3.8.1-21.1 1.9-29.1 1.9-9.2 6-20.6 7.8-22.1 1.8-1.5 3.4-5.4 5.9-14.8 1.8-6.8 2.2-10.8 2.2-23.2 0-16.7-.8-19.9-6.6-27.8-1.8-2.5-4.9-7.2-6.8-10.3-7.5-12.2-23.8-31.2-36.5-42.4-13.1-11.6-30.8-22-44.1-25.9-9-2.7-18.6-2.9-23.9-.7l-3.9 1.7 2.3-2.5 2.3-2.5-3.6 1.7c-4.3 1.9-4.5 3.4-1.1 6.8 1.4 1.4 2.4 2.8 2.1 3.2-.2.4-.7 5.6-1 11.7-1.3 22.1-3.2 28.5-10.4 34.5-3.9 3.3-20.5 12-22.7 12-.8 0-1.6.8-1.9 1.7-1.6 4.8-8.9 10.5-17.3 13.4-8.1 2.8-26.3 6.9-37.8 8.5-2.2.4-4.1.7-4.2.8-.1.1-.5 2.4-.8 5.2l-.5 5h6.7c6.3 0 21 1.1 25 1.8 1 .2 3.8.7 6.3 1 9 1.2 16.3 2.6 16.8 3.1.3.3 0 .5-.6.5-1.4 0-17.1 9.2-23.4 13.7-10 7.2-11.6 14.6-5.4 25.8l3.7 6.8-2.5 2.4c-4.9 4.5-.8 7.7 17.1 13.2 5.5 1.7 10.4 3.1 10.7 3.1.4 0 0-1.3-.8-2.8-2.4-4.6-3.4-12.7-3-25.4.2-9.3-.1-12.6-1.2-14.2-2.1-3.1-1.7-6 1.4-8.8 3.5-3.2 8.7-5.2 21.8-8.3 14.8-3.5 14.7-3.5 26.7-4.6 5.9-.5 15.2-2.1 20.5-3.6 24.5-6.4 31.5-7.1 38.6-3.8 2.1 1 4.4 2.8 5.2 4 1.4 2.2 1.7 2.2 4.5.8 6.1-3 10.6 1.8 13.4 14.2 3.3 14.1 2.6 26.9-3.5 64-1.7 9.9-3 18.3-3 18.7 0 .5-.9.3-2.1-.4-1.8-1.2-2.3-1-4.5 1.7-2 2.4-2.4 3.7-1.9 6.5.4 1.9.7 4.2.8 5 .1 2.1-1.4 17.4-1.8 18-.2.3-.6 2.7-.9 5.5-.4 2.7-1.1 6.8-1.6 9s-1.1 6-1.5 8.5c-.3 2.5-1 6.1-1.5 8-.5 1.9-1.1 4.8-1.3 6.5-.3 1.6-.8 4.1-1.1 5.5-.3 1.4-.8 3.6-1 5-.2 1.4-2.1 10.1-4 19.4-2 9.3-3.9 18.3-4.2 20-.2 1.7-1 4.9-1.6 7.1-.5 2.2-1.2 4.9-1.4 6-.2 1.1-1.5 7.2-3 13.5-1.4 6.3-2.8 12.5-3 13.7-.4 2.2-3.9 17.2-6.9 29.8-.8 3.3-3.7 15.7-6.4 27.5-4.4 19-7.2 30.6-15.2 64-1.2 4.7-2.2 9.2-2.4 10-2.2 10.4-9.1 35.8-10.9 40-4.1 9.4-12.6 46.5-12.6 54.6 0 3.3-.1 3.4-2.2 2.3-1.3-.7-6.2-3.8-11-7-9.5-6.2-15.6-8.6-23.2-9.3-7.4-.6-17.5 2.7-26.3 8.5-2.4 1.5-3.3 1.7-3.3.7s6-31.2 7.5-37.8c1.9-8.3 2.4-10.9 2.8-13 .3-1.4 2.2-9.5 4.2-18s3.9-16.6 4.1-18c.9-4.6 21.5-85.4 23.4-92 1.1-3.6 3-10.8 4.4-16 2.3-9.1 4.1-15.8 8.7-32.8 2.5-9.1 5.9-22.1 6.5-24.2 8.3-32.4 12.4-49.2 12.8-52.7.3-2.3 1.2-5.7 1.9-7.5 1.2-3 2.7-8.5 4.3-15.8.3-1.4.7-8.3.9-15.3.2-7.9.9-13.4 1.6-14.3 2.4-2.9-.7-18.2-5-24.9-3.4-5.1-7.2-7.6-17.4-11.5-4.5-1.7-9.6-4-11.4-5l-3.2-1.9-1.5 4.7c-3.8 12.3-3.1 14.9 6.9 25.7 6.8 7.3 7.3 8.1 5.5 8.9-2.6 1.2-2.5 4.1 0 6.6 1.9 1.9 4 2.4 10.3 2.3 1.5-.1 2.7.1 2.7.3 0 .8-13 6.9-20.2 9.4l-7.8 2.7 3.1 2.6c5.9 4.9 3.3 10.1-11.1 21.7-4.4 3.6-8 6.8-8 7.1 0 .4 1.4.9 3 1.2 1.7.4 3 1 3 1.5 0 .7-3.2.8-8.4.3-.5-.1-.3-.7.3-1.5 1-1.2.8-1.7-.8-2.5-1.6-.9-2.6-.5-6.3 3-6.9 6.5-21 12.7-35 15.5-18.3 3.5-52.9 3.9-75.6.8-1.8-.2-5.4-.7-8-1-3.9-.4-24.4-4.1-33.2-6-1.4-.3-6.1-1.5-10.5-2.7-4.4-1.2-8.9-2.1-10.1-1.9-1.2.2-4.7 2.5-7.9 5.2-3.3 2.8-7.3 5.2-9 5.6-2.5.4-12 0-12-.6 0-.1-1.1-.4-2.4-.6-1.4-.2-3.3-1.2-4.2-2-1.6-1.5-1.9-1.4-3 .4-1.2 1.8-1.6 1.7-12.8-3.5-24.8-11.7-28.6-13.6-28.9-14.4-.2-.5-1-.9-1.7-.9-1.5 0-5.2-2.3-19.5-11.9-16.3-11-26.3-19.2-41.8-34.5-27.6-27-47.3-57.2-57.1-87.6-6-18.6-7-26.7-4.6-36 8.1-32.1 27.9-56.8 58.5-73.3 10.4-5.6 32.7-13.4 44-15.3 1.4-.3 3.2-.7 4-.9.8-.2 4-.7 7-1 3-.4 8.2-1 11.5-1.5 7.7-1.1 37.2-.6 40.5.7 1.7.7 3.8.6 7-.2 6.2-1.6 22.2-1.9 29-.4 18.9 3.9 35.2 17.6 45.6 38 1.8 3.7 2.8 7.3 3 11.4.3 7.9.8 9.9 3.9 15 3.3 5.6 9.1 10.6 17 14.3 5.3 2.6 16.8 6.5 22.4 7.7 15.2 3.2 38.4 7.5 38.7 7.2 1.6-1.6-34.6-37.8-87.5-87.5-4-3.8-6.1-6.4-5.6-7.2 2-3.2 2.3-8.4.8-12.2-7.4-18.6-47.5-22.8-93.8-9.8-11.1 3.2-39 13.4-41.2 15.2-.9.7-1.8.5-2.9-.6-6.6-6.6-27.2-11.6-46.4-11.2-14.1.3-22.6 2.3-34.5 8.2-9.9 4.8-21.6 14.8-27.4 23.6-8.2 12.2-14.9 30.8-17.2 47.3-1.1 8.1-1.3 8.5-3.6 8.1-2.7-.5-2.9.5-.7 3.9.9 1.4 1.4 2.5 1.1 2.5-.3 0-3.1-1.5-6.4-3.3-10.3-5.8-30.6-14.8-45.6-20.2l-7.8-2.8-4.2 2.1c-2.3 1.1-8.2 3.9-13.2 6.2-10.9 5-71.8 35.5-76 37.9-1.6 1-7.5 4.2-13 7.1-5.5 2.9-10.4 5.6-11 6-.5.4-5 2.9-10 5.5-4.9 2.7-12.3 6.8-16.3 9.2-4.1 2.4-7.6 4.3-7.9 4.3-.3 0-3 1.5-6.1 3.4-3.2 1.9-14.2 8.5-24.7 14.7-42.3 25.1-75.8 46.7-115 74.3-17.6 12.4-56.2 40.9-57.5 42.5-.3.4-2.5 2.2-5 4.1-4.4 3.4-32.5 26.5-34.6 28.5-.6.5-3.7 3.2-6.9 6-3.2 2.7-6.6 5.9-7.7 6.9-1 1.1-1.8 1.5-1.8.9 0-1.3 9.7-28 11.9-32.8.6-1.1 3.3-7.6 6.1-14.5 7-17 24.8-52.3 35.4-70.5C318 618.7 371 560.4 432.8 517.6c15.4-10.6 36.2-23.2 47.9-29 1.7-.8 3.2-3.9 5.9-12.1 11.8-35.9 28.8-66.3 53-95 44.1-52.4 108.2-92.7 188.4-118.4 9.1-2.9 27-8.1 29.4-8.5.6-.1 2-.5 3.1-.9 1.1-.3 3.1-.8 4.5-1.1 1.4-.2 6.3-1.3 11-2.4 8.4-2 17-3.8 22.6-4.8 1.6-.2 6.5-1.1 10.9-1.9 8.3-1.5 26.7-4 37-5 3.3-.3 7.8-.8 10-1 2.2-.3 8.3-.7 13.5-1.1 5.2-.3 9.6-.8 9.8-.9.5-.4 63.3.3 67.2.8zm272.5 188.1c2.2.3 6.7.7 10 1.1 6 .5 19.8 2.3 24.5 3 8.1 1.3 10 1.6 14.5 2.5 2.8.6 6.4 1.2 8 1.5 9.3 1.5 35.5 8 52 13 59 17.9 115.7 48.5 148.8 80.4 7.8 7.5 12 13.5 17.6 25.4 8.2 17.1 11.7 32.2 12.6 54.7.8 20.1 1.4 27.1 2.5 31l1.1 3.5-8.7 8.2c-4.7 4.6-9 8.3-9.4 8.3-.5 0-1.5.6-2.2 1.3-3.4 3.4-18.8 12.5-33.3 19.7-13.3 6.5-37.5 16.3-43.5 17.5-.8.2-5.5 1.5-10.5 2.9-17.7 5-44.9 10.2-64 12.1-3.3.3-7.3.8-9 1-1.6.2-8.1.7-14.4 1.1-8.5.5-11.5.3-12.1-.6-.4-.7-4.7-1.6-9.6-2.2-10.3-1.1-16-3.8-19.9-9.5-2.7-4-2-5.4 2.2-4.7 1.2.2 3.4.6 4.7.8 1.7.3 4-.9 8.4-4.5 3.8-3.1 6.2-4.4 6.5-3.6.7 2 1.3.8 5.9-12.8 3.3-9.7 4.4-14.3 4.2-18-.1-2.8-.5-13.1-.9-23s-.8-21.3-1-25.3c-.2-6.6 0-7.6 2.1-9.7 4.4-4.4 2.8-11.3-3.5-16-3.3-2.4-3.4-2.6-3.7-10.5-1-27-17.4-53.1-54.5-86.6-6.7-6.1-7.6-6.8-24.4-21.9-5.5-4.9-12-10.8-14.5-13.1-17.4-16.4-15.9-15.3-19.3-14.2-8.9 2.8-13.5 3.8-16.7 3.6-4.3-.3-11.1-3-15.3-6.2-3.9-3-14.7-8.6-16.4-8.6-.7 0-1.3-.4-1.3-.9 0-.4 2.8-.9 6.2-1 3.4-.1 6.4-.4 6.6-.6.6-.6 64.6.2 69.7.9zm-31.4 88.8c23.2 15.3 42.5 37 50.6 56.7 1.8 4.5 3.6 7.4 5 8 2.2 1 5.9 6.8 4.9 7.8-.2.3-1.5-1.1-2.8-3.1-1.3-2.1-3.4-3.9-4.8-4.2-2.7-.6-2.7-.6-8.8-4.6-13.6-9.1-38.4-9.8-62.2-1.8-4.7 1.5-8.6 2.7-8.8 2.5-.2-.2 1.2-2.5 3.1-5.2 7.5-10.5 13.9-25.4 15.4-35.9.3-2.7.7-9.3.7-14.6.1-5.4.4-9.8.7-9.8.4 0 3.5 1.9 7 4.2zm304.9 161c-3 13.5-8.7 35.7-15.7 60.8-14.6 52.6-12.8 46.3-36.3 127.5-5.6 19.2-13 44.9-16.5 57-3.5 12.1-8.9 30.8-12 41.5-14.7 50.8-31.7 111.9-38.1 137.5-5.7 22.6-5.1 19.9-7.9 34.3-2 10.8-2.8 13.1-6.6 19-9.5 14.6-29.5 31.6-49.9 42.4-16.2 8.6-42.6 18.1-59.5 21.4-1.1.2-5.4 1.1-9.5 1.9-4.1.8-9.1 1.7-11 2-1.9.3-4.4.7-5.6.9-13.6 2.8-63.7 2.9-73.4.1-.8-.2-2.6-.6-4-.9-1.4-.2-4.4-.9-6.7-1.5l-4.3-1.2v-5c0-5.2 4-26.3 8.5-45.4.9-3.9 1.9-7.9 2.1-9 .2-1.1 5.3-22 11.5-46.5 6.1-24.5 11.2-45.2 11.4-46 .1-.8.8-3.5 1.5-6s1.4-5.2 1.6-6c.2-.8 1.1-4.2 2-7.5.9-3.3 1.7-6.7 1.9-7.5.2-.8 4.2-17 9-36s8.8-35.2 9-36c.2-.8 1.5-6.3 2.9-12.3 6-24.8 7.7-32.1 11.5-49.2 2.2-9.9 4.3-19.6 4.6-21.5.3-1.9 1-5.4 1.6-7.8.5-2.3 1.1-5.9 1.4-8 .4-3.6 1.4-9.9 2.1-13.5.5-2.6.6-13.9.1-16.1-.2-1 .5-5.3 1.5-9.5 1.8-7.7 10-42.6 11.4-49.1.4-1.9.8-3.7.9-4 .7-2.9 2.7-12.3 3.1-14.6.3-1.6.9-4.5 1.3-6.5.4-1.9.8-5.1.7-7-.1-2.9.3-3.5 2.1-3.7 1.3-.1 7.6-2.9 14.2-6.1 24.8-12.5 32.8-13.1 43.3-3.1 2.8 2.7 5.5 4.7 5.8 4.5.4-.3 5.2-.7 10.6-1 5.5-.3 11.5-.7 13.4-.9 1.9-.3 6.4-.7 10-1.1 3.6-.3 7.2-.8 8-1 .8-.2 3.8-.7 6.5-1 5.9-.6 22.7-3.5 23.5-4 .3-.1 2.5-.6 5-.9 4.4-.6 26.2-5.8 62.5-15 9.9-2.5 20.9-4.8 24.5-5.1 10.2-1 11.4-1.3 13.3-3.6 2.7-3.4 3.1-6.6 1.3-12.2-.9-2.9-1.9-7.5-2.2-10.2l-.7-5 2.1 1.9c2 1.8 2.3 1.8 4.7.2 3.1-2 6.3-7 7.2-10.9.3-1.5.9-2.7 1.3-2.7.5 0 0 3.7-1 8.2zm-258.4 27.6c-2.2 2.3-2.9 1-.9-1.8 1.1-1.6 1.8-1.9 2.1-1.1.2.7-.3 2-1.2 2.9zm239 80.1c5.2 2.4 7.1 4.8 2.2 2.8-5.6-2.3-9.4-4.6-7.8-4.6.8 0 3.4.8 5.6 1.8zM1108 1121.5c4.5 4.3 6.5 12.2 6.4 25-.2 10.9-1.3 16.2-5.7 26.4-1.8 4.1-2.3 3.3-3.1-4.5-1.5-14.8-11-33.8-18.9-38.1-1.7-.9-1.7-1.1.4-3.7 1.3-1.6 4.2-4.1 6.6-5.7 5.5-3.4 10.3-3.2 14.3.6zm271.2 59.3c-.7 1.9-2.7.8-3-1.7-.2-1.3 0-3.5.4-5 .7-2.5.7-2.5 1.9 1.4.7 2.2 1 4.6.7 5.3zm-273.7 2.4c-1.5 6.9-6.2 12.8-11.7 14.7-3.9 1.4-3.5.3 1.8-4.9 2.5-2.5 5.7-6.4 7.2-8.7 1.5-2.4 2.8-4.3 3-4.3.2 0 0 1.5-.3 3.2z"/><path d="M1146.5 1252.9l-4 .7 4.5.7c2.5.4 6 1.6 7.7 2.7l3.1 1.9-2.1-3.4c-2.3-3.5-2.6-3.6-9.2-2.6zM1115 1677.2c0 .4 1.6.8 3.5.8s3.5-.2 3.5-.4-1.6-.6-3.5-.8c-1.9-.2-3.5 0-3.5.4zM1046 1990.6c-7.4 1.3-14.2 2.6-15 2.8-1.4.4 29-.4 37.5-.9 2.2-.2 5.5-.4 7.4-.4 4.1-.1 3.6-1.1-.8-1.6-1.8-.2-5.7-.9-8.8-1.5-3.1-.5-5.9-1-6.2-.9-.3.1-6.7 1.2-14.1 2.5z"/></svg>